<svg xmlns="http://www.w3.org/2000/svg" viewBox="0 0 892.46 245.02"><defs><style>.cls-1{stroke:#000;stroke-miterlimit:10;}</style></defs><g id="Livello_2" data-name="Livello 2"><g id="Livello_2-2" data-name="Livello 2"><path class="cls-1" d="M587.46,12l-14,32s-16.28.57-21,1c-5.5.5-1.5,3.5-12.5,4.5a31.62,31.62,0,0,1-18-4L487.49,27.26a3.06,3.06,0,0,1-1.72-2.77c0-2.77.9-7.58,7.19-9,9-2,13,9,35,11s-34-15-34-15a16.59,16.59,0,0,0-9,4c-1.11,1-1.72,4-2,6-.18,1.22-2.41,1.87-4,2-13,1-10,1-10,1l-12,8s-12-1-12-6,26-21,26-21l32-5,35,14a42.76,42.76,0,0,0,15,3C561.69,17.52,587.46,12,587.46,12Z"/><path class="cls-1" d="M553,62.52H529s-7,0-11-4-4-8-12-16-19-8-27-8-21,5-21,5,12,21,20,36,6,31,6,31-2,15-28,11-36-15-36-15c-1,16-6,25-6,25s22,12,40,17,41,5,41,5c1-26,9-31,9-31s38-10,45-24S553,62.52,553,62.52Zm-54,12a8,8,0,1,1,8-8A8,8,0,0,1,499,74.52Z"/><path class="cls-1" d="M450,38.52s-16,5-22,25-7,30-7,30,7,11,25,17a41.88,41.88,0,0,0,32-2s3-20-8-38S450,38.52,450,38.52Z"/><path d="M16.33,33.53H37.67L54,120.2H38.24L35.37,103v.25H17.47l-2.86,17H0ZM33.51,91.47l-7-42.83h-.28L19.33,91.47Z"/><path d="M72.32,33.53H92.08l15.33,51.88h.28V33.53h14V120.2H105.54L86.64,56.93h-.29V120.2h-14Z"/><path d="M144.21,33.53H160V120.2H144.21Z"/><path d="M182.44,33.53h22.49l10,62h.29l10-62h22.49V120.2h-14.9V54.58h-.28L221.11,120.2H207.93L196.48,54.58h-.29V120.2H182.44Z"/><path d="M282.4,33.53h21.34l16.32,86.67H304.31L301.45,103v.25H283.54l-2.86,17H266.07Zm17.18,57.94-7-42.83h-.29l-6.87,42.83Z"/><path d="M338.39,33.53h15.75v74.29h25.93V120.2H338.39Z"/><path d="M620.84,33.53h13.62V68.82h14.61V33.53h13.62V120.2H649.07v-39H634.46v39H620.84Z"/><path d="M681.13,99.65V54.08c0-13.86,7.31-21.79,20.68-21.79s20.67,7.93,20.67,21.79V99.65c0,13.86-7.3,21.79-20.67,21.79S681.13,113.51,681.13,99.65Zm27.73.86V53.22c0-6.19-2.72-8.55-7.05-8.55s-7.06,2.36-7.06,8.55v47.29c0,6.19,2.72,8.54,7.06,8.54S708.86,106.7,708.86,100.51Z"/><path d="M740.43,99.65V33.53h13.62v67.11c0,6.19,2.6,8.41,6.93,8.41s6.93-2.22,6.93-8.41V33.53H781V99.65c0,13.86-6.93,21.79-20.31,21.79S740.43,113.51,740.43,99.65Z"/><path d="M797.62,99.65v-5H810.5v6c0,6.19,2.72,8.41,7.06,8.41s7.05-2.22,7.05-8.66c0-7.18-2.72-11.76-11.63-19.56-11.39-10-15.11-17.09-15.11-27,0-13.62,7.06-21.55,20.31-21.55S838,40.22,838,54.08v3.59H825.11V53.22c0-6.19-2.48-8.55-6.81-8.55S811.49,47,811.49,53c0,6.31,2.85,10.89,11.76,18.69,11.39,10,15,17,15,27.74,0,14.11-7.18,22-20.55,22S797.62,113.51,797.62,99.65Z"/><path d="M855.31,33.53h37.15V45.91H868.93V68.82h18.7V81.2h-18.7v26.62h23.53V120.2H855.31Z"/><path d="M442.94,234.16V211.47c0-6.91,3.46-10.86,10.12-10.86s10.11,3.95,10.11,10.86v3.7h-6.41V211c0-3.09-1.36-4.26-3.52-4.26s-3.51,1.17-3.51,4.26v23.61c0,3.09,1.36,4.2,3.51,4.2s3.52-1.11,3.52-4.2v-8.44h-3.39V220h9.8v14.12c0,6.91-3.45,10.86-10.11,10.86S442.94,241.07,442.94,234.16Z"/><path d="M477.42,201.23h9.19l7,43.17h-6.78l-1.24-8.57V236h-7.71l-1.23,8.45h-6.29Zm7.4,28.86-3-21.34h-.12l-3,21.34Z"/><path d="M501.54,201.23h9.68l4.31,30.9h.13l4.31-30.9h9.69V244.4h-6.42V211.71h-.12l-4.93,32.69h-5.68l-4.93-32.69h-.12V244.4h-5.92Z"/><path d="M539.34,201.23h18.5v6.17H546.13v11.41h9.31V225h-9.31v13.26h11.71v6.17h-18.5Z"/></g></g></svg>